<svg xmlns="http://www.w3.org/2000/svg" viewBox="0 0 824.2 764.13"><defs><style>.cls-1{fill:#1d1d1b;}.cls-2{fill:#af181b;}</style></defs><g id="Layer_2" data-name="Layer 2"><g id="Layer_1-2" data-name="Layer 1"><path class="cls-1" d="M601.78,306.94c28-27,61.72-43.24,99.37-51.66a274.62,274.62,0,0,1,65.78-7,144.53,144.53,0,0,1,39.85,6c-6.06,3-11.22,5.29-16.19,8-26.63,14.26-46.92,34.22-55.88,63.84-5.64,18.63-4.88,37.38.84,55.95.58,1.86,1.2,3.7,1.85,5.69-53.92-1.89-98.22,42.25-84.74,107.41-22.06-12-45.15-15.19-69.36-10.05-25.19,5.36-42.31,21-54.22,43.4-7.55-5.37-15.1-9.86-23.68-12.13-15.16-4-28.9-.56-41.52,8.32-8.82,6.21-17.05,13.26-27.06,17.73-15.52,6.92-30.49,6.32-45.27-2.11-6.68-3.82-12.63-8.62-18.8-13.12-23-16.74-42.72-17-66-.75-.8.56-1.58,1.13-2.73,1.95-11.62-22.38-28.55-38-53.83-43.36-24.11-5.08-47-2.05-68.84,9.72,12.74-62.37-30.95-109.92-84.57-107.2,9.83-27.8,8.86-54.85-5.69-80.73-14.28-25.39-36.65-41.18-64.2-52.24,6.64-2.77,12.62-3.46,18.5-4.4,18.07-2.88,36.13-2.11,54.24-.17a268.42,268.42,0,0,1,60.11,13,203,203,0,0,1,72.82,43.91l1.6,1.27c.22.24.43.49.81.93,0-1.05-.18-1.41-.89-.8,1.08-1.19,0-1.68-.75-2.29C224.9,289.3,218,272,214,253.59c-5-22.45-5.92-45.07-3.95-67.91,3.71-43.06,20.08-80.78,48.24-113.39C287.48,38.43,324,16.47,367.52,6.05a213.17,213.17,0,0,1,74.24-4.7q64.14,7.32,113,49.85c36.1,31.52,58.76,71,67.12,118,7.86,44.29,2.49,87.3-16.92,128.22-1.34,2.84-2.64,5.7-4,8.55-.57.62-1.68,1.08-.17,2.82C601.15,308.1,601.47,307.52,601.78,306.94Zm-285.19,90,.78,2.14c1-2,.79-2.58,0-3-2.23-7.1-4.72-14.13-6.64-21.31-7.63-28.58-9.13-57.41-3-87,29.35,21.48,49.1,49.77,63.75,81.83,30.55-15.77,60.83-12,91.36-.41,13.86-32.31,34-60,63-81.28a176.48,176.48,0,0,1,3,56.08,193,193,0,0,1-13.11,53.9c20.69-22.3,28.63-49.74,31-79,1.73-21.52.87-43-6.68-64.32a179.21,179.21,0,0,0-52.22,41.17c-14.73,16.71-25.9,35.5-32.67,56.77-19.65-8.06-58-9.65-76.8-.33C362.94,308.7,334.33,276.74,294,254.4c-.6,1.5-.92,2.23-1.18,3-.53,1.57-1.11,3.13-1.53,4.72-6.82,26.06-6.9,52.34-1.35,78.5C294.3,361.35,301.54,381.06,316.59,396.92ZM497.26,208c.46-46.24-36-82.28-81.2-81.6-44.09.65-79.84,34.78-80.87,79.63-1,45.32,37.89,85,87,82.29C459.54,286.29,498.43,253.11,497.26,208ZM396.89,34.12c.8-4.19-1.58-4.13-3.81-3.85-5.27.66-10.56,1.28-15.77,2.29-30.5,5.92-57.61,18.91-80.82,39.62q-61.77,55.13-61,138c0,1.74-.11,3.38,3.61,4.38-.12-45.83,12.06-87.23,42.5-121.93S350.57,38.35,396.89,34.12ZM268.08,213.56c3.41-85,47.12-135.23,130.66-150.52-.17-3.46-2.65-3-4.67-2.71-4.43.58-8.87,1.22-13.24,2.13C312.66,76.7,263.19,139.4,265.23,208.9,265.27,210.52,264.89,212.3,268.08,213.56ZM401.2,92.77c-1-2.7-2.43-3-4.25-2.67-3.6.57-7.27.86-10.81,1.68-39.34,9-66.34,33-82.57,69.4a107.24,107.24,0,0,0-9.35,44.5c0,2.07-.43,4.49,3.19,4.42C302.25,144.8,335.88,104.89,401.2,92.77ZM352.6,440.54c0,13.3,3.84,24,14.57,31.18,8.82,5.93,18.09,5.9,26.49.4a68,68,0,0,0-10.33-9.86c-2,2.26-3.81,5.4-7,3.64-5.87-3.24-5.41-8.87-4.14-14.26A97.12,97.12,0,0,0,352.6,440.54Zm108.74,11.53c1.7,6.13.49,11.19-3,13.37-3.86,2.42-5.8-.69-7.94-3-3.33,3.47-6.81,6.44-9.16,10.5,9.24,5.3,18,4,25.89-1.68,10.13-7.24,14.52-17.54,14-30.7C473.89,443.85,467.39,447.29,461.34,452.07ZM572.23,299.64c17.07-31.35,27.29-64.39,24.74-101.15-3.7,1.68-3.77,1.69-3.68,5.48a167.82,167.82,0,0,1-16.73,77.4c-2.91,6.06-5.65,12.19-8.49,18.34A4.29,4.29,0,0,0,572.23,299.64ZM556.43,262c7.91-15,13.6-44.15,11.8-60.11-.17-1.52-.57-2.56-3.72-2.82-.54,9.9-.22,19.88-2,29.66-1.9,10.12-5,19.83-8.42,29.8C555.49,259.19,554.73,261.3,556.43,262ZM539,199.88l-3.28-.93a156.16,156.16,0,0,1-8,45.65c1.83-.79,2.75-1.14,3.63-1.59a9.36,9.36,0,0,0,1.42-1.24C536.76,228.29,540.2,214.43,539,199.88Zm-121.92,314c2.14-2.62,5-4,5.64-7.17-4.35-3.48-7.94-3.53-12.56-.07Z"/><path class="cls-1" d="M267.85,721H250.34c-4.51-20.46-9.08-41.16-13.88-62.9-5.16,21.38-10.12,41.94-15.15,62.77-6.26.21-11.82.67-17.58-.25-4.21-17.78-8.34-35.3-12.51-52.81-3.41-14.32-6.89-28.62-10.27-43a18.57,18.57,0,0,0-5.43-9.87c-2.17-2-3.05-4.28-2-7.13,7.95-1.9,35.32-.9,38.06,1.51-.14.69,0,1.73-.5,2.24-4.91,5.31-4.42,11.41-2.91,17.77,3.75,15.92,7.42,31.86,11.36,48.79,4-17.27,7.73-33.54,11.49-49.81a5.64,5.64,0,0,0-1.2-5.11c-2.07-2.6-4-5.31-6-8-1.68-2.25-2.67-4.61-.87-7.72h32.35a4.38,4.38,0,0,1,.72,4.85c-3.43,7.56-1.41,14.94.11,22.43,2.85,14.1,5.53,28.24,8.33,42.36.11.56.68,1,1.18,1.76,3.25-16.72,6.29-33.11,9.65-49.43,1.4-6.75-.92-11.64-6.12-15.6-1.44-1.09-3.13-2-3.74-4a3.76,3.76,0,0,1,4-2.8c9.49.08,19,0,28.16,0,2.61,2.1,2.08,4.29.22,5.73-4.75,3.67-6,8.84-7.22,14.28-6.55,29-14.07,57.85-20,87C270.2,716.43,270.94,719.11,267.85,721Z"/><path class="cls-1" d="M729.82,764.13c-10.35-4.17-17.39-14.69-29.46-15.39-1.91-4.6,10.27-19.49,18.49-22.66,6.51,3.23,10.37,10.17,17,13.13,5.82-1.74,9.12-5.27,9.24-10.45.18-7.62.05-15.25.05-23.35l-24.41,17.4-24.87-21c3.25-7.32,3.33-14.76,3.29-22.24-.06-14-.26-28,.12-42,.16-6-1.43-10.7-5.94-14.55a5,5,0,0,1-2.22-4.38c6.4-6.61,16.15-9.14,23.9-14.73,6.84,4.4,10.29,9.94,10.2,18-.23,20.83.24,41.66-.28,62.48-.18,7.24,2.46,12,8.32,16,4.53-.79,8-4,11.91-6.53,0-20.4-.05-40.73,0-61,0-3.89-2.38-6.41-4.35-9.24-3.42-4.91-2.93-7.11,2.21-9.86L761,604.08c6.1,4.55,10.39,9.84,10.32,18.39-.26,30.65-.15,61.31,0,92a13.28,13.28,0,0,1-3.79,9.9C755.66,736.52,744,748.82,733,761.85A5.68,5.68,0,0,1,729.82,764.13Z"/><path class="cls-1" d="M47.92,554.28c13.29,7,24.68,20.73,42.36,11,.47.79.74,1.2,1,1.64s.59,1.16,1,2c-5.69,10.39-12.22,20.23-21,28.9C59.11,591.44,48.7,583,36.63,577.13c-4.31,4-4.79,9.16-4.35,14.3.55,6.41,2.79,12,7.8,16.66,12.86,11.86,26,23.44,39.6,34.37,8.26,6.62,11.84,14.84,12.43,24.92.46,7.85-.31,15.64-.89,23.45-.2,2.64-2.06,4.14-3.8,5.61-10.83,9.1-21.72,18.12-32.6,27.17a12.39,12.39,0,0,1-5.66,2.6C33.32,718.32,21.27,703.44,1.93,702c-.28-.55-.65-1.25-1-1.95S.41,698.91,0,698c7.45-7.37,14.42-15.13,22.61-21.77,14.64,8.14,27.87,17.57,42.88,24.87,3.17-7.7,1.87-14.57,1.29-21.43C66,670,58.36,665.44,52,660c-11.21-9.68-22.46-19.32-33.86-28.78C12,626.09,8.6,620,8.83,611.83c.25-8.65.13-17.3,1.37-25.9A9.33,9.33,0,0,1,14,579.72q14.69-11.6,29.47-23A30.34,30.34,0,0,1,47.92,554.28Z"/><path class="cls-1" d="M507.89,564.09c11.12.8,22.06-1.05,33.48,1.17-12.25,16.12-12.69,34.92-16.94,52.34-8,32.94-14.86,66.17-22.15,99.3a8.62,8.62,0,0,1-1.67,3.81h-20c-3.49-14.74-6.88-29.19-10.34-43.63q-11-45.83-22-91.64c-1.23-5.15-3.33-9.63-7.43-13.16-2-1.69-3.85-3.68-3.61-6.59,4.81-2.56,44-1.94,46.79.64-.28,2.47-2.37,3.43-4,4.71a8.74,8.74,0,0,0-3.51,9.26q10.65,46.94,21.55,93.81c.06.26.39.47.9,1,4.46-23.44,8.91-46.6,13.26-69.77,1.5-8,3.44-15.85,4.09-24,.39-4.94-1.4-8.2-5.69-10.57C507.44,569.11,507.35,568.41,507.89,564.09Z"/><path class="cls-1" d="M666,722.65c-11.12-5.67-16-13.27-15.29-26.14,1.26-21.41.35-42.94.35-64.47-6.41-7.87-10.13-8.44-17.28-3-2.89,2.2-3.49,5.21-3.49,8.35,0,19,0,38,.11,57,0,6.17,2.68,11.19,7.77,15.68-5.87,5-12,8.72-18.17,12.82a126.27,126.27,0,0,1-19.61-12c-.7-2-.56-3.42.46-4.69,3.92-4.84,4.46-10.47,4.36-16.44-.25-14.49-.26-29-.27-43.47,0-9.33,1.21-19-8.92-25.4,7.14-8.48,16.87-11.21,24.54-17,5.77,4,9.22,8.91,10,15.92,8.91-4.32,16.35-10.48,25.06-15.9a56.1,56.1,0,0,1,21.38,17.49,7.32,7.32,0,0,1,1.09,5.27c-2.51,21.9-.6,43.88-1.19,65.82-.09,3.43,2.19,5.38,4.12,7.61s4.85,4,6.43,7.45C681,713.43,673.47,717.91,666,722.65Z"/><path class="cls-1" d="M303.37,629a10.19,10.19,0,0,1,4.45-4c11-6.17,21.61-13.09,32.09-20.15,3.49-2.35,5.93-2,8.58,1.07a147.5,147.5,0,0,1,24.59,39c-14.16,11-29.56,20.41-44.05,31-.7,13.11-1.61,14.37,21.86,25.09l13.38-9.66c4.13,2.91,4.23,4,.72,7.53a11.65,11.65,0,0,1-1.09,1,326.72,326.72,0,0,0-27.79,24.82c-9.11-4.86-17.17-10.85-25-17.21-5.32-4.32-7.39-9.07-7.11-16.2.66-17.14.08-34.32.19-51.48C304.17,636.17,302.54,632.65,303.37,629ZM328,661.92l17.08-11.84c-1.8-10.73-8-21.28-15.37-25.07C329.18,637.23,328.64,649,328,661.92Z"/><path class="cls-1" d="M130.23,676.14v11.32c6.06,6.67,13.85,10.27,22,13.84l13.57-10c1.9.61,3.09,1.82,3.59,4.57-10.05,9.76-21.71,18.3-31.48,29.06A124.88,124.88,0,0,1,106.46,702c-1.57-1.58-1.4-3.67-1.27-5.66,1.1-17.81.57-35.62,0-53.44,0-1.66.38-3.45-.09-5-2.71-8.68,2.51-12.34,9.07-16,8.55-4.77,16.61-10.39,24.93-15.57,2.07-1.29,3.92-3.16,7.47-3.15,11.89,11.4,20.33,25.7,27.86,41.67C160.4,656.24,144.7,665.56,130.23,676.14Zm-1.14-14.25a158.82,158.82,0,0,0,17.38-12.13c-2.44-9.84-6.73-18.08-13.93-24.55l-1.8.27C130.21,637.26,129.67,649.05,129.09,661.89Z"/><path class="cls-1" d="M824.2,709.19c-7,5-12.41,10-19.34,13.26a142.14,142.14,0,0,1-20.44-12.89c0-.49-.22-.95-.07-1.11,5.42-6.23,5.91-13.62,5.85-21.49-.21-32.66-.11-65.33,0-98,0-4.66-.39-8.91-3.8-12.46-1.16-1.21-1.84-2.78-.82-5.44,10.59-5.44,20.6-13.08,30.47-20.85,1.81.43,2.48,1.71,3.36,3.54-7.55,15.38-4.75,32.25-5,48.75-.39,27.66-.1,55.33-.2,83C814.21,694.62,813.69,703.81,824.2,709.19Z"/><path class="cls-1" d="M409.63,620.07c5-4,10.08-7.51,14.55-11.66,3.9-3.62,7.61-4.16,12.12-1.58,2.71,1.55,5.79,2.5,7.8,4.85,1,2.65-.29,4.78-1.08,6.87-2.59,6.81-5.36,13.55-8.16,20.28-1.22,2.94-2.92,5.35-7.06,4.08-3.92-4.5-5.22-11.28-11.07-15.17l-7.41,4c0,21.17-.09,42.15.08,63.12a15.36,15.36,0,0,0,5.07,11.08c1.16,1.12,2.66,2.08,3,4.71l-18.15,11.6c-7-3.24-13.33-7.45-19.57-11.34a4.14,4.14,0,0,1,.56-4.91c3.42-4.09,4.05-8.84,4-14-.15-18.17-.19-36.33,0-54.5a16.8,16.8,0,0,0-4.18-11.83c-1.56-1.8-3.9-3.48-2.27-7.27,6.38-5.17,14.53-9.06,22-14.31C405.86,607.68,408.42,613.31,409.63,620.07Z"/><path class="cls-1" d="M545.19,618.77c6.08-5.85,14-9.66,20.94-14.65,8.88,3.63,13,9.6,13,18.84.05,22.14.29,44.29-.12,66.42-.14,7.27,2.4,12.48,7.77,16.8a14.93,14.93,0,0,1,1.41,1.35,5.69,5.69,0,0,1,.47,1.24l-18.86,14.45c-6.34-3.62-11.75-8-17.29-12.25-2.88-2.19-3.95-4.85-1.75-8.2a16.42,16.42,0,0,0,2.41-9.46c-.09-18.31-.14-36.62,0-54.94,0-5.58-1.08-10.43-5.48-14.28A6.57,6.57,0,0,1,545.19,618.77Z"/><path class="cls-1" d="M549.79,579.64,566,565l14,15.32-15.67,13.69Z"/><path class="cls-2" d="M499.31,208c1.19,46.22-38.67,80.22-76.94,82.33-50.35,2.77-90.24-37.9-89.18-84.35,1.06-46,37.69-80.94,82.88-81.62C462.44,123.68,499.78,160.62,499.31,208Zm-82.5,19.37c12.93-.19,20.72-10.13,20.48-20.29-.26-11.08-7-19.73-21-20.27-10.75-.42-20.33,9.26-20.24,19.89A20.48,20.48,0,0,0,416.81,227.38Z"/><path class="cls-1" d="M416.39,232.8A25.58,25.58,0,0,1,390.47,207c-.12-13.29,11.85-25.39,25.3-24.87,17.51.67,25.89,11.48,26.22,25.34C442.29,220.14,432.54,232.56,416.39,232.8Z"/></g></g></svg>