<svg xmlns="http://www.w3.org/2000/svg"
     viewBox="0 0 779.85 547.2">
    <defs>
        <style>.cls-1{fill:#f6f0ed;}.cls-2{fill:#af181b;}</style>
    </defs>
    <g id="Layer_2"
       data-name="Layer 2">
        <g id="Layer_1-2"
           data-name="Layer 1">
            <path class="cls-1"
                  d="M574.85,306.94c28-27,61.72-43.24,99.37-51.66a274.67,274.67,0,0,1,65.78-7,144.53,144.53,0,0,1,39.85,6c-6.06,3-11.22,5.29-16.19,8-26.63,14.26-46.92,34.22-55.88,63.84-5.64,18.63-4.88,37.38.84,55.95.58,1.86,1.2,3.7,1.85,5.69-53.91-1.89-98.22,42.25-84.74,107.41-22.06-12-45.15-15.19-69.36-10.05-25.19,5.36-42.31,21-54.22,43.4-7.55-5.37-15.09-9.86-23.68-12.13-15.16-4-28.9-.56-41.52,8.32-8.82,6.21-17.05,13.26-27.06,17.73-15.52,6.92-30.49,6.32-45.27-2.11-6.68-3.82-12.62-8.62-18.8-13.12-23-16.74-42.72-17-66-.75-.8.56-1.58,1.13-2.73,1.95-11.61-22.38-28.55-38-53.83-43.36-24.1-5.08-47-2.05-68.84,9.72,12.74-62.37-30.95-109.92-84.56-107.2,9.82-27.8,8.85-54.85-5.7-80.73C49.92,281.46,27.55,265.67,0,254.61c6.64-2.77,12.62-3.46,18.5-4.4,18.07-2.88,36.13-2.11,54.24-.17a268.42,268.42,0,0,1,60.11,13,203,203,0,0,1,72.82,43.91l1.6,1.27c.22.24.43.49.81.93,0-1.05-.18-1.41-.89-.8,1.08-1.19,0-1.68-.75-2.29C198,289.3,191.08,272,187,253.59c-5-22.45-5.92-45.07-4-67.91,3.71-43.06,20.08-80.78,48.24-113.39C260.55,38.43,297,16.47,340.59,6.05a213.17,213.17,0,0,1,74.24-4.7Q479,8.67,527.79,51.2c36.1,31.52,58.76,71,67.12,118,7.86,44.29,2.49,87.3-16.91,128.22-1.35,2.84-2.65,5.7-4,8.55-.56.62-1.68,1.08-.17,2.82Zm-285.19,90,.78,2.14c1-2,.79-2.58,0-3-2.23-7.1-4.72-14.13-6.64-21.31-7.63-28.58-9.13-57.41-3-87,29.35,21.48,49.1,49.77,63.75,81.83,30.55-15.77,60.83-12,91.36-.41,13.86-32.31,34-60,63-81.28a176.48,176.48,0,0,1,3,56.08,193,193,0,0,1-13.11,53.9c20.69-22.3,28.63-49.74,31-79,1.73-21.52.87-43-6.68-64.32a179.21,179.21,0,0,0-52.22,41.17c-14.73,16.71-25.9,35.5-32.67,56.77-19.65-8.06-58-9.65-76.8-.33C336,308.7,307.4,276.74,267,254.4c-.6,1.5-.92,2.23-1.18,3-.53,1.57-1.11,3.13-1.53,4.72-6.81,26.06-6.9,52.34-1.35,78.5C267.37,361.35,274.61,381.06,289.66,396.92ZM470.33,208c.46-46.24-36-82.28-81.2-81.6-44.09.65-79.84,34.78-80.87,79.63-1,45.32,37.89,85,87,82.29C432.61,286.29,471.5,253.11,470.33,208ZM370,34.12c.8-4.19-1.58-4.13-3.81-3.85-5.27.66-10.56,1.28-15.77,2.29-30.5,5.92-57.61,18.91-80.82,39.62q-61.77,55.13-61,138c0,1.74-.11,3.38,3.61,4.38-.12-45.83,12.06-87.23,42.5-121.93S323.64,38.35,370,34.12ZM241.15,213.56c3.41-85,47.12-135.23,130.66-150.52-.17-3.46-2.65-3-4.67-2.71-4.43.58-8.87,1.22-13.24,2.13C285.73,76.7,236.26,139.4,238.3,208.9,238.34,210.52,238,212.3,241.15,213.56ZM374.27,92.77c-1-2.7-2.43-3-4.25-2.67-3.6.57-7.27.86-10.81,1.68-39.34,9-66.34,33-82.57,69.4a107.24,107.24,0,0,0-9.35,44.5c0,2.07-.43,4.49,3.19,4.42C275.32,144.8,309,104.89,374.27,92.77Zm-48.6,347.77c0,13.3,3.84,24,14.57,31.18,8.82,5.93,18.09,5.9,26.49.4a68,68,0,0,0-10.33-9.86c-2,2.26-3.81,5.4-7,3.64-5.87-3.24-5.4-8.87-4.14-14.26A96.85,96.85,0,0,0,325.67,440.54Zm108.74,11.53c1.7,6.13.49,11.19-3,13.37-3.86,2.42-5.8-.69-7.94-3-3.33,3.47-6.81,6.44-9.16,10.5,9.24,5.3,18,4,25.89-1.68,10.14-7.24,14.52-17.54,14-30.7C447,443.85,440.46,447.29,434.41,452.07ZM545.3,299.64c17.07-31.35,27.29-64.39,24.74-101.15-3.7,1.68-3.77,1.69-3.68,5.48a167.82,167.82,0,0,1-16.73,77.4c-2.91,6.06-5.65,12.19-8.49,18.34A4.29,4.29,0,0,0,545.3,299.64ZM529.5,262c7.91-15,13.6-44.15,11.8-60.11-.17-1.52-.56-2.56-3.72-2.82-.54,9.9-.22,19.88-2.05,29.66-1.9,10.12-5,19.83-8.42,29.8C528.57,259.19,527.8,261.3,529.5,262Zm-17.45-62.09-3.29-.93a156.16,156.16,0,0,1-8,45.65c1.83-.79,2.76-1.14,3.63-1.59a9.36,9.36,0,0,0,1.42-1.24C509.83,228.29,513.27,214.43,512.05,199.88Zm-121.92,314c2.13-2.62,5-4,5.63-7.17-4.35-3.48-7.94-3.53-12.56-.07Z" />
            <path class="cls-2"
                  d="M472.38,208c1.19,46.22-38.67,80.22-76.93,82.33-50.35,2.77-90.25-37.9-89.19-84.35,1.06-46,37.7-80.94,82.88-81.62C435.51,123.68,472.85,160.62,472.38,208Zm-82.5,19.37c12.93-.19,20.72-10.13,20.48-20.29-.26-11.08-7-19.73-21-20.27-10.75-.42-20.33,9.26-20.24,19.89A20.48,20.48,0,0,0,389.88,227.38Z" />
            <path class="cls-1"
                  d="M389.46,232.8A25.58,25.58,0,0,1,363.54,207c-.12-13.29,11.85-25.39,25.3-24.87,17.51.67,25.9,11.48,26.22,25.34C415.36,220.14,405.62,232.56,389.46,232.8Z" />
        </g>
    </g>
</svg>